
<svg xmlns="http://www.w3.org/2000/svg" width="1536" height="1024" viewBox="0 0 1536 1024" version="1.1"><path d="M 395.482 316.869 C 392.661 318.151, 376.142 334.224, 340.014 370.840 C 311.716 399.520, 287.874 424.226, 287.032 425.743 C 285.700 428.140, 285.459 438.812, 285.188 507.500 C 284.958 565.509, 285.189 587.950, 286.056 591.957 C 287.201 597.254, 287.969 598.174, 312.345 623.457 C 360.844 673.761, 392.265 704.950, 396.520 707.010 C 400.527 708.950, 402.793 708.999, 486.066 708.978 C 566.627 708.957, 571.728 708.852, 575.500 707.130 C 578.287 705.858, 593.321 691.231, 625.070 658.902 C 681.387 601.557, 684.567 598.121, 685.388 593.744 C 686.520 587.713, 687.093 432.059, 685.999 427.996 C 685.447 425.946, 683.623 422.521, 681.945 420.385 C 680.267 418.248, 656.981 394.550, 630.197 367.723 C 598.144 335.617, 580.110 318.272, 577.434 316.973 C 573.481 315.055, 570.960 315.001, 486.434 315.022 C 404.438 315.043, 399.272 315.148, 395.482 316.869 M 374.715 461.526 C 374.833 499.216, 375.318 530.745, 375.791 531.591 C 376.463 532.792, 378.556 530.774, 385.326 522.400 L 394 511.670 394 452.335 L 394 393 384.250 393 L 374.500 393 374.715 461.526 M 593.970 396.826 C 587.826 401.498, 555.554 428.626, 554.205 430.252 C 553.083 431.605, 553.635 432.144, 558.358 434.306 C 561.353 435.678, 565.480 437.406, 567.528 438.146 C 569.576 438.887, 571.428 439.952, 571.643 440.513 C 572.015 441.481, 569.134 448.419, 555.038 480.500 C 551.655 488.200, 547.457 497.787, 545.710 501.805 C 543.459 506.980, 542.090 508.993, 541.016 508.705 C 540.182 508.482, 531.390 502.494, 521.478 495.400 C 511.566 488.305, 501.563 481.208, 499.251 479.630 C 492.071 474.729, 482.106 475.065, 477.117 480.375 C 475.387 482.217, 461.333 512.350, 447.560 543.750 C 446.535 546.087, 445.401 548, 445.041 548 C 444.681 548, 439.687 544.628, 433.943 540.507 C 421.178 531.348, 416.565 529, 411.332 529 C 403.910 529, 402.284 530.719, 371.750 570.846 C 365.837 578.616, 361 585.875, 361 586.976 C 361 589.279, 365.915 602, 366.805 602 C 367.130 602, 370.445 599.955, 374.171 597.455 C 379.747 593.714, 382.432 590.840, 389.354 581.205 C 401.238 564.663, 411.910 551, 412.946 551 C 413.432 551, 418.931 554.641, 425.165 559.092 C 431.399 563.542, 438.170 568.042, 440.210 569.092 C 444.651 571.376, 449.790 571.532, 454.583 569.530 C 458.554 567.871, 457.587 569.729, 477.484 525.500 C 483.916 511.200, 489.485 499.177, 489.858 498.782 C 490.231 498.387, 499.978 504.852, 511.518 513.150 C 535.770 530.587, 540.879 533.363, 546.935 532.394 C 549.209 532.031, 552.139 530.892, 553.447 529.863 C 556.270 527.643, 555.561 529.115, 576.015 483 C 584.919 462.925, 592.356 446.340, 592.542 446.143 C 592.728 445.947, 597.719 447.623, 603.633 449.867 C 609.548 452.111, 614.491 453.843, 614.618 453.716 C 614.745 453.589, 613.575 448.988, 612.019 443.492 C 606.521 424.073, 597.937 394.604, 597.713 394.380 C 597.588 394.255, 595.904 395.356, 593.970 396.826 M 1166 413.585 C 1147.149 416.953, 1137.063 421.686, 1126.989 431.891 C 1118.848 440.139, 1113.803 448.588, 1109.909 460.500 C 1107.716 467.206, 1107.603 469.133, 1107.227 506.426 C 1106.853 543.563, 1106.934 545.783, 1109.001 554.728 C 1114.656 579.198, 1129.373 595.697, 1153 604.054 C 1158.541 606.014, 1161.566 606.364, 1173.500 606.426 C 1189.193 606.509, 1194.516 605.510, 1205.882 600.347 C 1216.504 595.522, 1228.107 583.756, 1233.837 572 C 1241.087 557.125, 1241.257 555.903, 1241.751 515.116 C 1242.052 490.191, 1241.819 476.190, 1241.011 470.663 C 1238.654 454.544, 1230.348 437.889, 1220.201 428.936 C 1214.306 423.734, 1204.324 418.652, 1194.821 416.015 C 1187.773 414.059, 1171.178 412.660, 1166 413.585 M 749 510 L 749 604 768.500 604 L 788 604 788 566 L 788 528 816.500 528 L 845 528 845 512.015 L 845 496.031 816.324 495.765 L 787.648 495.500 787.365 472.250 L 787.083 449 819.541 449 L 852 449 852 432.500 L 852 416 800.500 416 L 749 416 749 510 M 944.999 510.250 L 945 604 964.024 604 L 983.047 604 982.774 546 C 982.623 514.100, 982.725 488.003, 983 488.006 C 983.501 488.013, 1001.906 524.290, 1027.728 576.167 L 1041.500 603.834 1060.750 603.917 L 1080 604 1080 510.249 L 1080 416.498 1061.508 416.262 L 1043.016 416.027 1042.758 474.263 C 1042.593 511.479, 1042.161 531.778, 1041.562 530.500 C 1041.046 529.400, 1034.259 516.350, 1026.479 501.500 C 1013.812 477.320, 1001.422 453.404, 987.516 426.291 L 982.793 417.082 963.895 416.791 L 944.998 416.500 944.999 510.250 M 878 510.500 L 878 604 897 604 L 916 604 916 510.500 L 916 417 897 417 L 878 417 878 510.500 M 1165.139 447.147 C 1161.224 448.274, 1155.240 451.912, 1152.788 454.657 C 1150.791 456.892, 1147.436 464.190, 1146.424 468.500 C 1146.037 470.150, 1145.516 486.242, 1145.268 504.261 C 1144.645 549.341, 1146.216 559.445, 1155.097 567.469 C 1160.742 572.568, 1165.361 574.257, 1174 574.379 C 1183.443 574.512, 1188.476 572.997, 1193.838 568.407 C 1203.297 560.310, 1205.001 551.565, 1204.996 511.140 C 1204.991 469.848, 1203.359 461.074, 1194.132 452.738 C 1187.614 446.850, 1174.776 444.374, 1165.139 447.147 M 585.744 508.121 L 575.988 530.500 575.994 564.782 C 576.001 602.007, 575.789 603.661, 570.486 607.832 L 567.730 610 469.865 610 C 416.039 610, 372 610.240, 372 610.533 C 372 610.827, 373.124 613.285, 374.498 615.996 C 377.652 622.221, 382.189 627.421, 385.752 628.897 C 387.772 629.734, 413.326 629.968, 481.006 629.770 L 573.500 629.500 577.795 627.207 C 584.415 623.672, 589.667 618.377, 592.720 612.161 L 595.500 606.500 595.795 556 C 595.957 528.225, 595.957 501.054, 595.795 495.621 L 595.500 485.742 585.744 508.121" stroke="none" fill="#ffffffff" fill-rule="evenodd"/></svg>